HIERARCHY
ROOT Hips
{
    OFFSET 0.000000 0.000000 0.000000
    CHANNELS 6 Xposition Yposition Zposition Zrotation Xrotation Yrotation
    JOINT Spine
    {
        OFFSET -0.000000 6.993131 0.000000
        CHANNELS 3 Zrotation Xrotation Yrotation
        JOINT Spine1
        {
            OFFSET -0.000000 20.649729 0.000000
            CHANNELS 3 Zrotation Xrotation Yrotation
            JOINT Neck
            {
                OFFSET -0.000000 20.564924 1.869539
                CHANNELS 3 Zrotation Xrotation Yrotation
                JOINT Head
                {
                    OFFSET -0.000000 11.939490 -1.705642
                    CHANNELS 3 Zrotation Xrotation Yrotation
                    End Site
                    {
                        OFFSET -0.000000 21.320518 0.000000
                    }
                }
            }
            JOINT LeftShoulder
            {
                OFFSET 3.446977 19.850397 -0.038759
                CHANNELS 3 Zrotation Xrotation Yrotation
                JOINT LeftArm
                {
                    OFFSET 7.083611 0.000000 0.000000
                    CHANNELS 3 Zrotation Xrotation Yrotation
                    JOINT LeftForeArm
                    {
                        OFFSET 32.044487 0.000000 0.000000
                        CHANNELS 3 Zrotation Xrotation Yrotation
                        JOINT LeftHand
                        {
                            OFFSET 22.068741 0.000000 0.000000
                            CHANNELS 3 Zrotation Xrotation Yrotation
                            End Site
                            {
                                OFFSET 12.792312 0.000000 0.000000
                            }
                        }
                    }
                }
            }
            JOINT RightShoulder
            {
                OFFSET -3.365844 19.850397 -0.038759
                CHANNELS 3 Zrotation Xrotation Yrotation
                JOINT RightArm
                {
                    OFFSET -7.083611 0.000000 0.000000
                    CHANNELS 3 Zrotation Xrotation Yrotation
                    JOINT RightForeArm
                    {
                        OFFSET -32.044487 0.000000 0.000000
                        CHANNELS 3 Zrotation Xrotation Yrotation
                        JOINT RightHand
                        {
                            OFFSET -22.068741 0.000000 0.000000
                            CHANNELS 3 Zrotation Xrotation Yrotation
                            End Site
                            {
                                OFFSET -12.792312 0.000000 0.000000
                            }
                        }
                    }
                }
            }
        }
    }
    JOINT LeftUpLeg
    {
        OFFSET 8.528208 0.000000 0.000000
        CHANNELS 3 Zrotation Xrotation Yrotation
        JOINT LeftLeg
        {
            OFFSET -0.000000 -31.874865 0.000000
            CHANNELS 3 Zrotation Xrotation Yrotation
            JOINT LeftFoot
            {
                OFFSET -0.000000 -38.221939 0.000000
                CHANNELS 3 Zrotation Xrotation Yrotation
                JOINT LeftToeBase
                {
                    OFFSET -0.000000 -5.543335 12.792312
                    CHANNELS 3 Zrotation Xrotation Yrotation
                    End Site
                    {
                        OFFSET -0.000000 0.000000 3.411283
                    }
                }
            }
        }
    }
    JOINT RightUpLeg
    {
        OFFSET -8.528208 0.000000 0.000000
        CHANNELS 3 Zrotation Xrotation Yrotation
        JOINT RightLeg
        {
            OFFSET -0.000000 -31.874865 0.000000
            CHANNELS 3 Zrotation Xrotation Yrotation
            JOINT RightFoot
            {
                OFFSET -0.000000 -38.221939 0.000000
                CHANNELS 3 Zrotation Xrotation Yrotation
                JOINT RightToeBase
                {
                    OFFSET -0.000000 -5.543335 12.792312
                    CHANNELS 3 Zrotation Xrotation Yrotation
                    End Site
                    {
                        OFFSET -0.000000 0.000000 3.411283
                    }
                }
            }
        }
    }
}
MOTION
Frames:    8
Frame Time:    0.008333
4.748963    75.989212    23.964077    -2.419823    1.476830    92.547165    -1.332653    -4.530528    -0.137228    -2.238656    -2.120626    -0.126582    3.102610    13.059469    6.082872    -1.960719    1.384145    5.982569    16.779745    1.497581    -1.876715    -22.065037    0.968242    -3.720642    4.313644    2.389236    -1.800569    -1.356227    2.503820    -3.958291    -9.655963    2.885527    3.412714    12.352745    3.222459    3.087494    -7.576252    8.572744    1.820591    3.918062    8.694489    0.075558    -6.636554    -6.586840    0.296215    3.865592    14.752186    -1.986847    -1.870063    -8.494750    -3.440638    0.000000    0.000000    0.000000    -6.575572    -1.670294    -1.601564    10.453741    7.354581    0.166550    -9.533879    -8.354205    -9.058065    0.000000    0.000000    0.000000    
4.751897    75.991150    23.967516    -2.409630    1.481068    92.556480    -1.328151    -4.560578    -0.156155    -2.247054    -2.108989    -0.145139    3.123821    13.039219    6.089831    -1.966274    1.498321    5.989829    16.815969    1.464600    -1.871887    -22.085129    1.023182    -3.712394    4.282780    2.316393    -1.859203    -1.386872    2.433396    -3.930591    -9.659951    2.874446    3.419316    12.343708    3.223165    3.102151    -7.555425    8.518607    1.846651    3.806886    8.640944    0.053288    -6.632618    -6.568233    0.315245    3.863813    14.737663    -2.024498    -1.857605    -8.493551    -3.437526    0.000000    0.000000    0.000000    -6.563197    -1.664608    -1.604182    10.431696    7.367023    0.148240    -9.489911    -8.350937    -9.048077    0.000000    0.000000    0.000000    
4.752216    75.990784    23.967636    -2.406899    1.486013    92.564041    -1.341633    -4.570442    -0.154895    -2.234869    -2.123711    -0.142796    3.186110    13.096714    6.097373    -2.048844    1.488169    5.986664    16.833178    1.464877    -1.881255    -22.102777    1.016747    -3.748932    4.274767    2.342127    -1.861474    -1.436748    2.460110    -3.875676    -9.637859    2.871530    3.407310    12.314717    3.222198    3.095537    -7.558323    8.476639    1.868782    3.829237    8.600660    0.058590    -6.644074    -6.564491    0.316438    3.876636    14.737390    -2.004141    -1.879233    -8.486239    -3.470627    0.000000    0.000000    0.000000    -6.566663    -1.662270    -1.621598    10.426533    7.374362    0.168149    -9.531942    -8.360852    -9.055301    0.000000    0.000000    0.000000    
4.754042    75.990891    23.969421    -2.401606    1.490606    92.571457    -1.346489    -4.583305    -0.148759    -2.242525    -2.122774    -0.136264    3.237608    13.096043    6.083720    -2.082392    1.541192    5.967517    16.848778    1.449964    -1.898805    -22.110878    1.044148    -3.770596    4.285383    2.360467    -1.878678    -1.480634    2.480465    -3.851498    -9.611644    2.850544    3.381231    12.302182    3.225626    3.091981    -7.585238    8.441960    1.884459    3.993460    8.568553    0.087936    -6.639616    -6.549152    0.312477    3.859011    14.725165    -2.026744    -1.866866    -8.487735    -3.434144    0.000000    0.000000    0.000000    -6.567510    -1.651215    -1.615198    10.428296    7.369383    0.168960    -9.519950    -8.359682    -9.079700    0.000000    0.000000    0.000000    
4.753110    75.990517    23.969549    -2.401584    1.497579    92.574364    -1.365021    -4.602713    -0.139946    -2.229150    -2.117126    -0.126020    3.236337    13.050654    6.033168    -2.033837    1.658328    5.921885    16.883284    1.453418    -1.923543    -22.144865    1.044463    -3.809855    4.293550    2.398720    -1.868052    -1.460489    2.517821    -3.856821    -9.593947    2.859694    3.334752    12.278004    3.216404    3.119178    -7.608127    8.363085    1.914802    4.002142    8.489145    0.002998    -6.651492    -6.540397    0.309384    3.867441    14.706916    -2.016304    -1.853881    -8.479400    -3.453299    0.000000    0.000000    0.000000    -6.576255    -1.654860    -1.613251    10.428983    7.379076    0.182378    -9.530561    -8.374716    -9.091746    0.000000    0.000000    0.000000    
4.754139    75.993088    23.971050    -2.397812    1.502215    92.581291    -1.393909    -4.613864    -0.143512    -2.180635    -2.127226    -0.128311    3.249985    13.057165    6.028137    -2.074165    1.714859    5.912300    16.854666    1.452210    -1.948971    -22.110847    0.962932    -3.827754    4.243755    2.547071    -1.841386    -1.405820    2.662778    -3.877298    -9.604282    2.847897    3.323083    12.264215    3.221266    3.127706    -7.613303    8.352707    1.930510    3.969049    8.479502    -0.008346    -6.652329    -6.525788    0.317025    3.861177    14.688396    -2.005679    -1.864193    -8.460258    -3.461934    0.000000    0.000000    0.000000    -6.569770    -1.649795    -1.628828    10.412066    7.376851    0.153694    -9.526704    -8.358610    -9.049515    0.000000    0.000000    0.000000    
4.734568    76.005180    23.978285    -2.453619    1.502016    92.567017    -1.424299    -4.649704    -0.127768    -2.143294    -2.162378    -0.110387    3.287073    13.096393    5.999230    -2.133698    1.682292    5.874078    16.861971    1.451460    -1.991063    -22.125380    0.985577    -3.840573    4.238459    2.528588    -1.834053    -1.363230    2.642336    -3.864989    -9.591977    2.843009    3.263839    12.241324    3.242156    3.164369    -7.616998    8.351807    1.942965    3.913997    8.479121    -0.019017    -6.646326    -6.606127    0.345833    3.864935    14.703993    -2.034982    -1.892976    -8.390223    -3.454973    0.000000    0.000000    0.000000    -6.558259    -1.740734    -1.611922    10.398503    7.402781    0.130200    -9.466947    -8.316636    -9.041564    0.000000    0.000000    0.000000    
4.734746    76.004913    23.978783    -2.453818    1.507122    92.567505    -1.648305    -4.479351    0.100154    -1.890867    -2.560133    0.122289    3.728384    13.374266    5.728619    -2.498590    1.667649    5.541909    16.877380    1.488218    -2.402539    -22.205908    0.883673    -4.132955    4.233861    2.681375    -1.588819    -1.303128    2.784894    -3.946454    -9.368290    3.005441    2.747554    11.995308    3.445093    3.161255    -7.614938    8.356903    1.989818    3.654137    8.485936    -0.062409    -6.654172    -6.597952    0.363278    3.874811    14.686347    -2.030801    -1.884586    -8.384842    -3.480755    0.000000    0.000000    0.000000    -6.560073    -1.740978    -1.612607    10.391263    7.403575    0.122576    -9.469841    -8.329106    -9.038350    0.000000    0.000000    0.000000    
